<mxfile host="Electron" agent="Mozilla/5.0 (Windows NT 10.0) AppleWebKit/537.36 (KHTML, like Gecko) draw.io/26.0.4 Chrome/128.0.6613.186 Electron/32.2.5 Safari/537.36" version="26.0.4">
  <diagram name="Page-1" id="sxpEy28-tGOMT4ZkLEEv">
    <mxGraphModel dx="1480" dy="1094" grid="1" gridSize="10" guides="1" tooltips="1" connect="1" arrows="1" fold="1" page="1" pageScale="1" pageWidth="850" pageHeight="1100" math="0" shadow="0">
      <root>
        <mxCell id="0" />
        <mxCell id="1" parent="0" />
        <mxCell id="7DGpWG91q_sENdPYiZ8R-2" value="&lt;font style=&quot;font-size: 15px;&quot;&gt;Insert Dynamic Telemetry Tracepoint&amp;nbsp; &amp;nbsp; &amp;nbsp;&lt;/font&gt;" style="rounded=0;whiteSpace=wrap;html=1;sketch=1;curveFitting=1;jiggle=2;" vertex="1" parent="1">
          <mxGeometry x="100" y="591" width="400" height="39" as="geometry" />
        </mxCell>
        <mxCell id="7DGpWG91q_sENdPYiZ8R-8" value="" style="shape=image;verticalLabelPosition=bottom;labelBackgroundColor=default;verticalAlign=top;aspect=fixed;imageAspect=0;image=data:image/png,iVBORw0KGgoAAAANSUhEUgAAAXgAAACNCAYAAAC9tWG4AAAAAXNSR0IArs4c6QAAAARnQU1BAACxjwv8YQUAAAAJcEhZcwAADsMAAA7DAcdvqGQAAC1zSURBVHhe7Z17VBzXnee/1S9AEjQvITXo1bIVHD8gmZaEpASTSHZsOWlBbCKDyNhO1tkNnpFP5IhzVvJkNmdnDWbRCXM8O2rv2ZnMWASp4yEZOXgix4E4RGPJKGonjg2xHqZlBLQQIIk39OvuH9XdVN2ufgGNJPT7nHOPxK3ffVd96/avfl0trF27lq1ZswYAMDExgVDo9Xq43W44nU7+EEEQBHELIsQi8BMTE2FtCIIgiFsHFZ9BEARBLA5I4AmCIBYpc3LRbN++XWZDEARB3DrMWeBHR0cxOjoqsyUIgiBuLsnJyXMX+L6+PjgcDpktQRAEcXMxGAzkgycIgliskMATBEEsUm6KwCeoVFijTYApKRkPLtXji0v1WKNLhFZ1U7pDEASxKFlQH/wabQKKlujxhSWpWKVNgCA5xgAMeV14b2IYb4/fwCfTk5KjBEEQRCwsmA8+UVDha8mZ+OHydfiGfgVS1Br0uZ3ock3hgmsCdtcE+t3T0DEBjy7LwN9mrsE39VnIVGv5qgiCIIgoibvAL9do8Uy6AU+lZkEnqGB3TuKyawrX3E6Me9yY8ngx5vFiwO3Cp64pfOqagk5QY7c+C0+lrYBBq+OrJAiCIKIgrgKfKKjwyLIMPJSkx7jHjStuJya9HjDGeNMAEx4PelyTuOp24guJKShZlok0tYY3IwiCICIQV4H/whI9ipJSMMY8GPJ44GZe3kQRDwOue9wY9rpQtFSPHcvSoRakHnvi9mAnqltbcaQylz9w27CzuhWtRypxO4wgt/LIbdNXYmGIm8Cv0SZgU1IyktUajHi9QeI+OTyCTy5exO87PsTFixcwMTwsO+5hDCNeDxiAB3RLcLcuSXZ83sitxJHWVlTv5A/cnuRWHkFrayuXjuDW0NhcVB6JRjCjtbtF2Fl9C8/5QnCbrdcdRNwEfp02EWu0CRhjHkx6PfxhXJuexLFeO7738R9wtNeO69NTvAmmvAzDXg/W65Jwb8ISqO6oXby4+43+xiPaHy7twaEdO7BDkg6187a3ErGO81alXTbvh9pzUHr4ThL52bJY1v/WJC4Cn6BSYX1CEjLVOkx5vGF97pFwer3QCsAqTQL0KjV/ePGSuw6r+LyQ7ER1634UtB/Cjh0HcYI7euLgU7Cc4zJvCudgeWoHdjxlQaA7iuNUsLvNOHHwENqRg63b7wSFn8N6Ka4/MV/EReD1ghppKg3cYHBhRtylbpmP+nox5BJ/Heqa04UPe3vw+44P8cnFizJ3jZt54WHAMpUKyXeSwMdAbmU5CtCOQwd5aScI4o5m7dq1rLCwkBUWFjKTyRQybd++nW3ZsoXl5eUF0ve+9z22e/fuQHl/Kv/yDtb89T3MXvYd9l7pU+zdJ8T0euEjbGemgfm+16SYHs1cyV4vfCRQ5nTp0+yTJ59lJ0ufZt99eGdQW3NOzx5ldqeTnayeyas+6WRO+1H2rO+Y05fsR58NKl99cua40+lkzpPVivUHjtuPsmf58vaj7Nnqk4HjR/k6leoNpGfZUXu448qJ7/f09O9YtZJNlPMQ6EfAzs6OPlvNTnL2gToV+iAdp9QuqE+BPk8zp/PkHPrN9zl4HkP1Q5aqTwb3I9x5JVnrQL0RzpNo+vrsUXtQOf98+cf+7FG7r6/B9Un7Kk3B6xRmzvm/w6xBcL3BY6I0+7R7924WF4F/esdX2K8e/ya7VPYddqb0mZgE/hFO4E+VPs0uln2HvVv6NHvuoUeD2ppzCnUh8heZ76KcsfNdILILqpqdlJ6gvrpnTupgMQ60xZ/YCv1STEFtREqi6CoLgZ0dfZbPm7F98MEHFeZBIk6yMfjaUbqoFYSNH2eQnUK/H3zwwbD9ng67fmKefN7C35Ck/ZOlIIEPXudAXUHzpLSGCuWj6Csv8EpzIwp86Hz5OgTPeah6+Xniz51C3xiC2gix/pTmnnbv3s3i4qKZ9HowxbxQCYLsdQTpCUkozzHi7+/5PP72rvuxWZ8BANiUkoEfrL8Pf3/P57Enx4i0hMRAGTUANQOmvV44Je6e+NOLppckPsUTr6GpFygo9D8NWo/VOUD7Manf8QQOBtwkuah8sRQ57YfwVMABfg6WY+1AQTn38G3u7pWeS9F5P3dW70dBbxOe4/ylJw4+h6beHJQ+zT/tmpkHxpjCPAA7ny5FTm8TnpON4QQOPteEXknOXFDqN2MsbL9/Vv1qmPUDcOJFydoAwAmcbAdytm6fRTRIAfYHImgOozSnF02vKa0pv9ZRnicnDsbU19zKI9hf0Ium55Sfv7QfkuefszyFQ+1AQflMJIzSnCPsucIT6Roi4k1cBH7Q60a/2wUNBGglkS9J+hTcdffd2HTfA7g/OwcZvm+ppuu0eCBnFTbd9wDuvnsDluj1gTJqQYBGpcKI140RrzuQH3d6T+M3sgvjHC71AFi1zncBdOFyL1CwP0SkRO52bM0B2k9yF3nXZfQiB6vXS/J6L6NL8mf82InCAqD39G8UHoadw29O9wIFhZBdfhHnIUyd5y6hh8+bFWHaCNfvj6UbAr7f8H1o9IX4+cR5f4GkSEzIo2h2PHcaWw+3opUPD+HXOpbzJMq+rq88gsOlOUEiPkM7+OYAoOtyL5CzGmKTs5hznojnDhFv4iLwLq8X/e5pjHldSJhjaGOioIJKAC67neh3u/jDNxExckAMh/NddPzFDKBgPxcffbgUObzRXPCJ6Kp1c79kzl2aHzleaGbb750vtaC19TC2nn5u/kNKz1nwUlOvwqc1ZSKdJzurxU8GEfuaU4r9pTlA+yHM8UNhWGY758TCEheBB4CLzinYXU4sU2uRoPAaYKm7hnfL+NEKApYKanzinMRHU2PwziHcMl6cOOjfsTWht2B/0Jc92g/JY9L9af4uvvAf1WMhd93tGbA2q37nVqJ8i4D2Qzs418f8EYsIhj1PcitRXiDaROxrbxOeO9QOFOyP6zeIZzXnxIITrLzzRJdzEmcmRjDFPNCrtVBzIi911/BuGQBQCQKSVRp4AJyeGMHHzlv89cHnLHjqUDuQsxXbcwGc+w3ET7HBu/r55sRrTejNKcWLES/ocDeDXGwXfQVBcfThEV1VinXuLEQIL0KMxKPfSuRiPnVLFMEehH08MuvzJExfTxzEjkPtyCk9HELkVyH4Ax8/jws150Q8iZvAA8D7U2P4w+Q49CoN9Co11Kro3DUqQUCqSoPlai1sU6N4d2L4Fty970Q155LZKTotfX5H/4Oy/dy39HaiOpqvdMfievHdXHJKDwd9ggCAndUzzwn8N4PDnN3O6sMozeEfAEaDb5w5pfjHlyQDza3EkVBOYilRjnPe++1rV/awuPowSufLf7bzJRwuzUFv02sRRPAcXvWdJ9Lpk50nSn196R/D9/XEQTzX1BtC5HNQerha5j9Xmsd5n3Mlolx/YnbEVeAHPS40jV7FyYkbyFTrkKVOgE7BXSNFp1JhuVqLLI0Of5wex9vj13Hds4APV2OhYL/Mb7p/FRdx4NtJyf2r+wFZ5E0oTuCgX7RD+PdlnDiIHTueQxNKcVjqy21txf4CyS7ynAVP+ez+saUFra2taGlpEfuu8C3YqDjxInY814S+LZL5eBF4acchKLmJ5ZzAi75xtrS0hB6npN/+8c2t3yfwot+t5quv/PJfKfu1o0IaRdOKlu9vic6lAoCdeBE7DrVjy/dbxDkIOk98EUkF+wPHy3si9/Wc5amAyMtv/O049NxllMvOkXYc4udRYc5b/ec5bztrYjzPiZhYkF90SlNp8PWU5di5LB1aQcCIx4URrwdOMHjAAMaQIAhIVmuhV2kw5nXjrbFrODF2C4v7IkAQhPCvkfCFuYa1iUDENmJEWt/c6xZ8kTRhEAQgyjbm2jfBF5AQrlzYeqNYr9zKI773Fb2IE2CBNhGmnNTGT5At3zb/dyg7MRMzTbBop5uIwIL9otN1rxuv3biC/zFwCacmR5CgUsOoS0Kubgnu1S3FvQnLcJduKVLVWvxxehy1Qz2wjgySuMeZoIuPh7HINhGYa3keaX1zrzuK8jG0Mde+sSjmO+zxKMrPINr52wxXTmoT0pbP5/8Omy+tmztEzIkFEXgA8IChc3ochwa78ddXLuAHV+2wXHegceQq/nW4H/976DL+ynEe/+vqJXRMjd+CPneCIIjbiwUTeD9eAANuF96fGsObo4M4eqMf/zZ8FW3jN9DnciK6nwQhCIIgIrHgAk8QxM3jnOUpxVdKE4sTEniCIIhFCgk8QRDEImXOYZKjo6MYHR2V2RIEQRA3l+Tk5LkLPEEQBHFrMieBJwiCIG5dyAdPEASxSCGBJwiCWKSQwBMEQSxSbqrA61QqLFNrkKBS84cIgiCIOXLTBF6v1uDbmTk4dlcevp2ZDb1aw5sQBEEQc+CmCLxerUF5hgFfT8tCkqDCrrQsVGQYSOQJgiDmkQUXeKm4j3m86HJOY8TthplEniAIYl5ZUIEPiHuqKO4DbhecXi+GPB6MeNwwpy7HHhJ5giCIeWHBBF62c/eK4u72vfPdyxiG3B6MeDzkriEIgpgnFkTglXbufnH342VMtpMnkScIgpgbcX9VAe9zVxJ3KSpBQIZajRSNBs3Xr6JxyIHheP50n7EC9TVm9FnKUNfGH7z1KaqyotLE50qxwVJWh9twaGEwoqK+BmY048C+Rtj5wwRBAPHewccq7pDu5H0PXu9cn3wRqqxWVBXx+XLa6spQVuZLB5rhAGCzSPIWnbjPlejmlSAWA3ET+NmIux+pyN+xPnnjKmTzeYQPOxr3laFsNrt3mlfiDiIuAh+Nzz0S5JMnCIKYG3HxwT+zPAfl6StnLe5SAj55tRo/vdaPpuv9GJtPn7yCD76oyorK7GYceAV4vsYMg8/U0XwA+xrle8YgH7jNgjKpM99Xv78OOOR+40Bbx7NRU2kCHM1o7jPDzPvV+XqVUBjLg/uPoTK7GQffyEb1d8X6D75wFHYYsedH1TAHOgbg/VdRHtSG3E4QBHlfIozPuOdHqNnlgKWsCavqa2Tt2UI89wiaU4XnCIF587UVzZoF1xvlvBLEbUpcdvBaqKARNPBAgJc/GCOMMXiZALUgvrNmwd5aYzCj5nngFb8v22KDwVwj8d0aUVHvE5WAv9sCm7QOn/ih+YDv+AE0w4wa3gFsMKNm8xnRZl8jGusU/OmzFCFBECBk70LN5t+jvLwc5S8cFcW3qBSbbAfFvPJylJe/ivdNlaivMM4UNlag3lqDXY5XA3ayMUY7PphQaX0eeGXm2cCBZgdMlbwvXPSPy+e0DBabCZXWeki7pkiENWubx3kliNuBuAj8L25cxVvDA8jQaJGp0UElCLxJVAgA0tVaZGh1+PXIII5fvxLfiBoZDjS/IvHxtjWh2QGYNvsVaQ2yDYDtuNQP3Ia6gGAYUfG8GQabRbLrt6PxuA0wlXBiZYMlrkKjUH9bHfdppA1nbIBh4zb4u1ZUaobB0YwDsrL+McYyPsBm2Qdpc/bGfbDYAFNJxUx7VZUwcZ8AAKCt7gCaHQaYS/kbB0+kNSOIO4u4CHy/axpHhnrx1vAA0ucg8ulqLTK1OrSMDOLIYA/6XU7eZB5gUHQgOc7itMwbY0dPH4DsVVgPAOhGbx9gqqxHhZghx7gNGw2A7QwnrN19cMCAbNErJuLoQ7fkz9mjOJIw9Rux50dWWK1ikrsvirDZxN/AJBi3wqQ4vl708eODDbwZAHT39gGGbIimYnuOs6cU2rPj1FkHYNqMsFLtOItTIdYs0uafIBYjcRF4AOh3TuPIYC9+NYudvAAgw7dzf3tkEK/FTdxFQvUqhFz6sOPoC2Ww2AwwV/tEMsg1AZgqZwTUarXCKvVXLyD8GIuqrLBaa7DJ5nevlMEi9S9FjDYRICiOb5e8XJRrHgl7Tx+fRRBEBOIm8JjlTp53yxwZ6o2ruAdLX2Skwh+IQz/wCzhMlbDWz7gcEBSTPpN4j8n8EHosspuVsQIlJrFv/ENjBGoJ8ckmgHh8TuOLcC5IMa4Kf7shCCKYuAo8YtzJK4q7c5o3m2ciCVmU2I9in8UGGDZimxGA/RREr0Lwrv5mIJ9xpREbIdNQ+2nYwvXffhpn+8Ic98MYgGysCnJjGbFV9PH4omOCnwFIbbeJ/i760hZBxEDcBR7+nfxg+J28X9wzF1TcEXA1KBE+vwhVnEumSHQi+/zA/geOlcGRItwuXxF7D0T3cURLCUrCrYC9F32Qi3NR1UwIo1jLTP/lrif/uO04+kYU4xMEAAaYq6tk/vOiqhrsypY//G1raobDYEYNNz9i3xQeFM+GWc0rQdyeLIjAQ+Ku+ZWCyEt37m/7H6guiLiLRCmLAQL2pkqZ/1kalw2IkSplFhvnp64EQj24lNGGOl+YXyj/fizIx9iGOr9Lydevkr6DAR984MbWVieGRcrGWYnAE9NoxseYGMVzoA/F0rkyBce2w96Iff5QS35eedtZM7/zShC3MnH5olM4VmgT8FRmDh7VL8eQ24Vrbif0Ks0Cu2WIhcJYUY8ac1+wmBMEEXcWbAfvR/rgNUOjxV2JS+WhkCTuBEEQ88KCCzwkD17fGh6ACsCvRwbxWtyjZQiCIO4sborAw7eTf+XKJTx+wYZX+i/Rzp0gCGKeWXAfPEEQBLEw3LQdPEEQBBFfSOAJgiAWKSTwBEEQixQSeIIgiEUKCTxBEMQihQSeIAhikUICTxAEsUghgScIglikkMATBEEsUm6KwCcIKqzTJaFgaSp2pGTgyykZWJeQBG2IHwIhCIIgYmdBX1WwTpeIh/XLUZScjrUJS2Q/qMEADLin8Z+j19B8YwAXpsYlRwmCIIhYWRCBT1KpsTN1OcrTs5Gl1WHU68ao240p5oUHDBoASwQNlqo1WKJS44bHiTeHr6L5+gCuuuglZARBELNBnZqa+kO9Xg8AcLlc/PEAiYmJcLlcYW2UWKFNwDPLV6EsQ/zBzx7nJPqd0xgYGUbvlX44BocwPDmJaZUK4wLDuNcDvVqDTUtTkarWoGt6EqMeN18tQRAEEYG47uCTVGpUZOZgd2oWRr0eOFzTuDQwgPf6utEydAXnx0cDtlkJCXgoYwUeXX0XjFkrkKHRIkOTgF/euIoj1/owRO+KJwiCiIm47uAfSs7A42lZcAO47JxCe083/t/HH6B3agK7V6zBf7snD3vuzUfpijXIS1iKUzeG8E5/L5YxICUxEQlaNT67JBmTXi86Jsdi/u1UglhsGCvq8eq3M2H71Ye4wR8kCI647eDX6RLx7aw12LhUD4dzCr/ttuOdni5sWJqCHavXQyeocXnwKpboU7A6MwsAcGVoED+1n8OnkxN4Yt0GfGnNOqzSJeHPU+P48cBldE6O8c3MHWMF6mvM6LOUoe42/NHQoiorvvsXDIIggDHxXwCS/yv8uDURO0VVsFaauEwHmg/sQ2PkX1CfN4wV9ajZeFb+4+4LghEV9TUwg/theeKWJm5hknclLsU6XRJGPR58MngVLZe7oBM02LF6PVJT0zDkmsLr/d349VB/oMzKjEz8lw33w5Scht87enG+vx/X3S5sSFiKvKRkqOISRslu0U8GRaiyWlFVxOfLaasrw549e1BeXo49L74JBwCbZSavjMR9HrHBUlaGMl+y2Aww19SjwsjbEXKiO5eJ+ScuAp8gqLAhcRmyNDpMetz4ZHwMqWotdqxeh9TUNN5cxjK9HluzV2EKHvznyBAmvB5oBQFrEpKQptHy5osX4yqIj6UjwxjzpeA8In601VlggwEbt90JCm9H474ylM1m9x7DuUzML3ER+DSNFulqDVxgGJmcwEfXBjDNGNYuWcabKmLQp0GftATXr13D2PAw3MyLZJUaySo1bzoPxONTAUEQxC3A2rVrWWFhISssLGQmkylk2r59O9uyZQvLy8uLmMwbC9jPdz7BPnniGfZG4SNsV1YOe/Kue9hbj32D/c5czn5nLmeNW3ewhzNWsGc+c38gz59+87Un2dOfuY99JWMl++nWh9iFx59h75jL2De3fDGorTmn4pdZS2cna9g7k/fXRzpYR8vLrLj4ZdbS0cE6fKnl5eKg8n99ZOZ4R0cH62jYq1h/Z2cn6+joYJ2ttaxYcnxvQ6eYt7eBdXaK/3+5oYN1dIhlOn31dvL1KqXiWtbKjUWa3+lPXB+Ka1tZZ2cD25u3lzVI7fxt8uW5vsyUL2a1rRI7pb740t4GuZ1YXsGGmxux38Ht8H1SKlvrzwvqj68+xWO+tLchuI8K863UbqBOfh6D2os8ruLa1qBy/rlsrRXPz7ivB/83Ny5/P5TrDR4TpfiluAj845u2sDcf+wazP/Ft9ovCRxUF/ui2h9nDGSuZ70usDEBA7P0C/1DGSnZ028Ps/OPPsDZzOXt6gQQ+cFK21rISv53vgp2xK2Yvt3A2eXtZg/Tk9dXdWlvC8vLyWH5+Catt7ZTdBPxtSfPy8/NZfolfPPJZfn5+cL+VkoLg+PNmLjrfRS9pTxSETtbR0cD25ovtie13sJaWFuV8yc1upnwLqy3x2eXns5LaVtbZ0cGJyl7W0NHBOlpqWYm/zvx8trdBLP9y8YytdG78dnl54lq01JYE8vLz97IGrk+KZYPWMMy88SlI4IPnUdounx/NOuTtbZCJY57vhivN4wVebK+V1Urmzb8eofKD1sN3rgffNOTlFQWeL6s0x9HML6W4pLi4aKYYwxTzQgCQqFJDJ6jgGRuHZ2zm9QMr09PxlxvuQ+1n8vHyhgfw8oYH8HDGCgCAc2ICzokJLFVroFdroBEETDMvpplX0sr8oeykcaD5lUZ0+f9sa0KzAzBt9j8pWoOcbMB2XGKDNtQFQnGMqHh+F7JtFuxrFC0Y60LjcRsEUzH2yNy2Nrx6aOZRqNyfPhdfuhEVz5thsFmwLxDqYUfjcRtgKuEeDjrw5sE6tPn9+V2NOG4TkJ0tKOdv2gbe8/z+qy+gscv/PIChq3EfLO8LMJVUBGyLqiphuvImDr7QiK7AswOGtroDePNKNnaV8k/ibHi1rk3+TKGtDi80dkmePbThjGKfuLJBayhi3LYRBkczmiI+jTah0mqF1WqF1VoDs8GBZsVCNlhkIVlRrkNbneQ4ALThjA0wbOTHJWKsqEelKXQkj80iz7c37oPFhuD1cARHxrTVHUCzwwBz0HrwiNdJoGyIOSZuDnER+H7XFPqcU9CqBKTq9bjHsBJqFdA7NRNiqRFUWLc8C1tz78W2e+7HtnvuD4RLDk1OYMLtQnp6GpakpEANAcMeF4bj9I1WRfl0nMVp2UVjR08fgOxVWA8A6EZvH2CqDBFFYdyGjQbAdoYTgO4+OJCNHDEyVcTRh27FTsyRsH0wIFvaB/ShhxOJ7j5H6HxDNmTFYQPfDIJsi7DZBDjOnlJ4UGfHqbMOwLQZMmlw9KFb+ncAIyrq/WJrRVAEI5TKKrVRhFKzIUSfeORRNGUHzmJjjRVWPjyEbzemdYhiXADWVNSjxmwIEvEZ4rQePI6zOBXiOlG6LIiFJS4C72IMV1xTGPU4sVStxl0JybgyPY2ff/IxHEODvLmMSecU3h3sx7SboSA5AxnaBKgEAZemJ+GI03tplHfwoRG12I6jL/hD5XwXJHehMwCmypmL1Wq1wlpjhkFmJRJrH2Ih2j7cbOw9fXyWIkVV4g5649kDkpBF3koZe+Nx2GBCYINZtBkm2HBcWSXDY2/EK80OhU9DykRah6jHZTCj0mwAbJa4fncj2vUgbl3iIvAA8PHkOC5OTWGZWovcFSvwyNr1GPC68B/dn2B0eJg3B3zifqb3MnqHr2PjypXYkLkcy9RqnJ8awx8nRuCdtasiPLHWKhXjtjr/bu4X6DNVwlo/8/FX8MWkB3Z8ksRfmLH2IRai7cPNxrgqimA6YwVKTOKY5O6MaBHdHn43RdFmE2A7M+vvCsQigmHXIZZxOZpxwGIDTJWoj+bOMkuiWg/iliZuAn9xegKnxq5hyutGhjYBm7KyYc5eh4tjY/injz9Ex+VLGJuagMvrwejYCM532/HPH9jwk0sXsHZZMgqXZ2NlYhLcjOHkyDV0xONbrMCs9s6KYmw/ihcsNsCwEdvWA7Cfwu/7brIv0n4K4qfshehDNlYFaY0R20TfhE9Aw/mUedtYMCIWLWoTO4FtRRUoMYXyo0eHKILBbiwZs16HMONqq0OZxQaDuSaEyN/M9SBuFeIm8ADQPj6MM+MjSFNrkb10GYrW341vbvgsnMyLFzv+gMd+/QZ2/Mfr+Oo7/4FnP3gP3ZPjqPzM/fjaZx/AqtQ0rNAm4L3xG2gbvx633XsIuY6CIlRxLpki0aGJU10QXThviLssuVkRqn40s8v3E3SbsfdAdGWKHv/Z4X+Qp9AHySeN+cEAc02VzF9bVFUDs0H+wLGtqRkOgxk1XPtKtor45kUqlmJZmVV42prEB4iVZhiCfMgxUFSFGrMBjuamCCIYxTrMZlxtdTjQ7Agh8gu0HtEQOJf5PhJxJx5hktK0c+NmduzRr7OBJ7/DLj7xDDu9aw/79deeZMe+8DD7+9zPsZc3PMD+zz1/wX667WH29ld3s9O79rALTzzDBnd/h7311d3syYJtQXXOawoVJikLf1TK52LG+XAxf/LHQ0tSNG0FleXD7pRSqHC0CH2YiZuWl4s2P/A3H+etUFZMwfHZSnPHh+UFkkLcNW/L/80nf8igPCwxTFKYQ34e8yK1q1CHUjhhuHHxYZKBPMkcLtR68H+HssvLm8W5TGleUtxeNiYlQ6PFkxkGlKSthAYCRjwu3HC7MM0YPGC+cEoBKWod9Cotxpgbb1y/gl/cGKDXBN8GGCvqUWPuu61eanY79jlaFvPYiNiIq4vGz5Dbhf/bfxnf7/4YbaNDSBDUuDtxGe5LSkZeUgoeSErBhoRkpGl0ODtxA3/bcx6vDdI74Il4Qf5l4s5gQQQeADxg+HBiBH/XexFPd32AF7o78aMrdvzzYA8sA934Yd8FPN31RxzsOY8/TYzG0edO3OkYK56fP/8yQdzCLJjA+/ECuOp24sz4MH5+/Qr+ZeAyGgd70TI8iMvTUyTsRNwwVtTDarWS+4K4Y1gQHzxBEASx8Cz4Dp4gCIJYGEjgCYIgFikk8ARBEIsUEniCIIhFCgk8QRDEIoUEniAIYpFCAk8QBLFIIYEnCIJYpJDAEwRBLFJuisAvEVS4J2kpvpySgcdSs7AjJQMPJCUjRa3hTQmCIIhZsqCvKlitS8TX9Fl4OCUTWboE/jCuu1343eg1HL/RjwtT4/xhgiAIIgYWROB1KhUKl6XhLzNysC5hCSa8Hox53JhgbriYF4IgIEFQI0WtRbJKjasuJ6xDvXh7ZBATXi9fHUEQBBEFcRf4FdoEPJluwGOpy+Fh4pskxz1u3ixAokpAllaHpSoN3hm5hoahXnw6PcmbEQRBEBGIqw9ep1LhEX0mHtUvx6jHjcvOybDiDgBTXoae6SkMuKbxYHI6vpaahWXkmycIgoiZuAp8wdJUFCWnY4p5MOR2wR3lu969EHDN48YNzzQeTE7Dl1LSeRPijqQIVVarwg9M37kYK+phnfcfUCcWC3ET+NW6RHw5JQPZ2kQMu91B4j4xPIJzn1zEqY8/CqT2cx3oGRwAA+BlwIjbi6WCBl9KzsC9Sctk5ecNYwXqrVbu1+5vM4wV+NGxYzgmSVarFVYSw/hRVBWY45lUjztnuo2oqLfSzeUWJ24Cn5eUjPsSlmLY68YEC35QOuSawuv93fjvFz4MpKrzf8K/nv8IjsEBAMAU8+KGx4XchKXIX5LCV7HIEXer0d14GAThCt48WI49e/Zgz549KC8vR1mZBX3mGhw7dizKeu50YplzALDBUlaGMl+y2Aww19xJIj9bYp1nYrbEReCXCCoYE5cgTZuAaY8XTME1szozCz/Yth2/M5fj9W0PY2emAQDgZV54MGM/zbxQCcA6XRJWKIRWLlqMq5DN54XBP2OMsUAC2lBXVoZX3xdgqiThiUiMc87TVmeBDQZs3HYnTLQdjfvKULavEXb+UCTmOM9E9MRF4DO0OqRrdHAxL1wKu3cpV4YG8S/nP8I1lwsF+kz+MKa9Hkx7PcjQ6pCh1vKHCQCAAIHPktB2SBQecyltmQjijmLt2rWssLCQFRYWMpPJFDJt376dbdmyheXl5UVMj2/awt587Busq/Rb7N1d5ex3ZuX01oNfZU+uXMMK9Jns8KYvsWc+cz97KD2LNW7dIbM7//gzrM1czp7e8sWgtuacimtZa2cna9g7k7e3oZN1ttayYt+xTl9qrS0OKr+3YeZ4R0cH62zYq1h/wKblZVbMl2+tZcV7G0Sb1lpWK6kzkPh6uTZaOltZbYnCMVk/G9jeMH3rbK2V9a24ttVXppjVtsr7I52vaOuLZV7zgtpsZbXFe1mDkv08tCtdx0AKN+d7G0LOp+K5JFnfQN8i9Dt4DoL7VFzbGlTOPxb/+GJeR8X54MYqHRv/93zOM6U5pbgIfOnmreyXX/0G63riW+zUrj1Bwi5Nx7/4KPvZtq+wNnM5+3buA4oCf+GJmyDw/AXnu0Bn7HwXi8QmP38va5CerL66Z05wsUyHxCbQFn+SS/qVn58vP8an4pcjCvzMRS4p09HJWmtLWH5+PsvPLwnqm1imk3V0tLDaknyfXT4rqW1lnR0dcnGIoj7/WDtaalmJr678vQ2ss1OpLvFm6W8zP38va+joCBKMWNoNv57K50LIFCTwvvOBW8dI68ufGzK7vQ3czSz4BscLvNheK6stnmnLv46h8uXjFdtQvmnIyysKPF92rvNMaU4pLi6aaa8XU14vNIIKGiG4iStDg/jD+Y/hGBpEeloalmdkQACwIz0Lu1euQbp2xteu8SUXY3BKfPPxx4HmVyT+xbYmNDsA02a/m2MNsg2A7fiMDWNtqKtr8/1lRMXzZhhsFuxr9FvYcfS4DYKpmPOH22AJlAtG6RmGHJ+LJpIZDMgxwte3Xch+34J9jV0+n30XGo/bIJhKgnz177/6Ahq7Znz7XY37YHlfgKnEH0ERS30OvPkPjejyPytoa0KzQ5DMK1BUugvZV97Egbo2yTOFNtQdfBMOaVUxtht+PWeDCZWBCJoamA0ONDcprSO/vsrnRuNxGyDtd1ud5DgAtOGMDTBs3KYYuWKsqEelyYHmA/sgK+bDZpHn2xv3wWKDZB2BoqpKmBzNOMD51tvqDqDZEY2bLx7zTMyWYPWdB657XLjudkEnCOC95hPDI/hZ1zn8+9UeTHJfelqdmYV77tqApXp9IE+nUkErqHDd48QNt0tmPz8wZV10nMVp2UViR08fgOxVWA8A6EZvH8SHl2KGHOM2bDQAtjPyC55198GBbGSLXx4WcfShW/Jn7PjGEM4RDwBwoNceum/o7oMDBnnfYANvBgDdfQ7AkI01iLE+x1mcCjGvosgUYbMJcJw9Ffzwzt6DPunf89rubJBH0ZQdOIuNNVZY+fAQfn1j6bc/HNF3I6k0SY/NsKaiHjVmQ5CIzxDFOoabe9hx6qwDMG1GWKmOyzwTsyUuAj/icePT6UmMeT3QqeRNLNGn4Jsb7sP379+I9VkrZceU0AoCGBg+nZqEwzXNH54XQumiovAHsOPoC77QuGrfBchf2ABMlfJY6WPVZojxQvNJ5B38mmxDkNDwfbPWzK1v811ftNysdoOwN+KVZod8Fx6GSP0uqrLCaq3BxrMHJKGYEgM/BjMqzQbAZkGYD4Jzxt4ju70StwFxEXgA+GhyFB9PjiFFo0GiSpC5ZfSpqdCnpvJFgtAJAlLUWnRNT+HDyVF4I7oqZkMoeQ+NtBdtdf7d2y/gMFUGffHDZpHs8MrKUF4u/ju/F2KEHbyxAiUmwHH2tGxnxvfNn2bbt/muL1puVrtKxCKCYfvtWzObpYxz0yjgaMYBiw0wVcb1i23GVRTceLsRN4G/OD2Bd0aGcN3lhHZsHMdDuGVCIQDQqzXwAvjtyBA+mBzlTeaJEC6aWLEfxT6LDTBsxDYjAPspiJ9og3f18SD0Dt7n73U04x+OdolZMfUtG6uCNMOIbaKPAW2Itb5IdKPPEcLPXLQZMg/FvLY7P4gi2IeecJo8634bEVJj2+pQZrHBYK4JIfJRrGNYHz9vS9wOxE3gAeDd0Ws4OXYdK9OX468++zl8/35TVG4ZAUCqRos0jQ7vjl3Hb8euxWn3jrAx5OHzi1DFuWSKRAemzwfpf2hWyX1jrwhV0Xy92+dvzg6+KhVRnB1jBeqtNTBDfGjWFTCKpW8GmGuqZH7XoqoamA3SB4ex1BcJX10GM2qklRkrUB/kgJ7PdmOf8yCKqlBjNsDR3BRBBKPot68vsofPVTUwh/M9tdXhQLMjhMhHs45AW1MzHAYzarj5U7KdNXOdZyJ64hEmKU3mTQXs33Y+zgaffJbZn/gWO1P8zaBQSWl6b9cedvHxZ9jQ7v/K3vrqbvZkwbagOuc1FdeyFqUwydZaVsLZysPCfOFk0hQUxzwTJiZNSm0FlQuUFUMDg8LspKn4ZdbC98UfFhcmdDJS3wKhlXy8tkJMdDT1hRqrYj7fZmstK1YIE5z3dqV1hZtzhTb5dkO2EaYOpXBC/7HW2uKg+vgwyUBeYM5msY4K8fJ8G0pj4/8OZZeXF8M8U5pTivv74AFgmUqNx9Ky8GS6AalqDUa8box7vZj0eOBiXqgFYIlKjSUqNVJUGkx5Gd640Y9/v9GPIZeTr45YIIwV9agx98FSVhdhR0rcytA63rnE1UXjZ8zrwetDDvxNz3mcGruBpYIG67RJ+GziMuQlpeC+xBQYdUuRptLhT5Nj+GHfBfx4sIfEnSAIYg4siMD7+fPkGH7Qcx5/2fUB/qb3PCwD3fjxYA9eHejG/3RcxNOXPkDV5Y9hGx+Oo8+dIAjizmBBBd5Pv2savx0ZQuNgL348cBk/GezF2zcGcHl6ioSdIAhinlgQHzxBEASx8NyUHTxBEAQRf0jgCYIgFikk8ARBEIsUEniCIIhFCgk8QRDEIoUEniAIYpESU5ik2+2G00nfLiUIgrgdiEngCYIgiNuHqAU+Ev7fzvR6vfB4PIHk9XpldsPDw7K/7wTUqXfDtCkXy3UA4IXL6YJX0ECnVUMAMH3lQ7xr68YkACQY8MCWz2HNMhUABo/LCTdTQavTQgXAO/wJ2t/9GNfoC7+LAvVd38LaTWsh9LyD3sF1yLp3LZJ0KjDPFCZ729H/3jtw+i4hv6362h/w6dtvwP9ZWjFf/3Ws3pmPJdOX4PiTC6n5dwXqner/MwbPvoHgy12P5C9+F9mrdJj4809w+QPll9prP/881uemy/K8XJ9kJOZC/7mHkJadDp1OPOe9U9cxaj+FwQ9/D7dcIqJHWI4lny/B8tUrkJCkgQCAOccx0fcHDNhaMM39wqfiPAWxEmlf+S6yfMNjrik4R/sxfO6XuPFpf9BruYVlG6HPK0DqCj20Oh1U/neMMydGP/oJ+jokv6GWuAHJ938J6TmZ0CYkQB1wkHvhvPRL2N87O2MbFQI0j3wdqz+XCYxcgOOf3sEUN+b/D8Nf6krnjN+LAAAAAElFTkSuQmCC;fillOpacity=50;" vertex="1" parent="1">
          <mxGeometry x="100" y="440" width="402.67" height="151" as="geometry" />
        </mxCell>
        <mxCell id="7DGpWG91q_sENdPYiZ8R-10" value="" style="shape=image;verticalLabelPosition=bottom;labelBackgroundColor=default;verticalAlign=top;aspect=fixed;imageAspect=0;image=data:image/png,iVBORw0KGgoAAAANSUhEUgAAABwAAAAcCAYAAAByDd+UAAAAAXNSR0IArs4c6QAAAARnQU1BAACxjwv8YQUAAAAJcEhZcwAADsMAAA7DAcdvqGQAAAFYSURBVEhLvdbNSsNQEIbhXllO0ioITRHS1CZdaKWN1AvSRfFn7YWIihcgBFcuxOpFjHwJDenJz5k5pXlhNk2bh0nLoT3quJ7+wqGzAvuOQyfKpYGj9EvGxOBQuXQ/GtNXvKSHUUhD5elvaU0E5lhIP7OEfuMr+o4TehSibLCMfU4X9D65pHS6FKMssMDiHHsL5/Q8PqfXyZzSKEe5j9cI6pttse1kqGDTVrBpM33Km5rQRtC0mT7cTWtBKSZBK6AtxkV3QO53Zpo2dAe88QPrzfQpo7d+kB2FFXDth/Q3W1EaJdkH9JtI5iW8oI+zBW3iFd1hS7cGDLw+PZ1Ge6NlDPcLvEFhVH40uJij11ZoG4YqILLd1IShWhBJN+VgqBFE3E25GGoFkQmVYMgIoiZUiiEWiHQUB4MUQ2wQldENRoghEYgK1AJDYhAdKZUdVceqg7+J+9Y5+A+EKRxNMzrqtAAAAABJRU5ErkJggg==;sketch=1;curveFitting=1;jiggle=2;" vertex="1" parent="1">
          <mxGeometry x="120" y="596.5" width="28" height="28" as="geometry" />
        </mxCell>
      </root>
    </mxGraphModel>
  </diagram>
</mxfile>
